<svg id="Layer_1" data-name="Layer 1" xmlns="http://www.w3.org/2000/svg" xmlns:xlink="http://www.w3.org/1999/xlink" viewBox="0 0 772.47 528.97"><defs><style>.cls-1,.cls-11,.cls-2,.cls-3,.cls-4,.cls-5,.cls-6{stroke:#231f20;stroke-miterlimit:10;}.cls-1,.cls-2,.cls-3,.cls-4{stroke-width:2px;}.cls-1{fill:url(#linear-gradient);}.cls-2{fill:none;}.cls-3{fill:url(#linear-gradient-2);}.cls-4{fill:url(#linear-gradient-3);}.cls-5{fill:url(#linear-gradient-4);}.cls-11,.cls-6{font-size:55.75px;fill:#231f20;font-family:ModernKING, Modern KING;}.cls-7{letter-spacing:-0.15em;}.cls-8{letter-spacing:-0.07em;}.cls-9{letter-spacing:0em;}.cls-10{letter-spacing:-0.07em;}.cls-11{letter-spacing:0em;}.cls-12{letter-spacing:-0.04em;}.cls-13{letter-spacing:0em;}</style><linearGradient id="linear-gradient" x1="300.96" y1="202.22" x2="595.65" y2="202.22" gradientUnits="userSpaceOnUse"><stop offset="0" stop-color="#007cc4"/><stop offset="1" stop-color="#006838"/></linearGradient><linearGradient id="linear-gradient-2" x1="156.51" y1="222.64" x2="396.49" y2="294.69" gradientUnits="userSpaceOnUse"><stop offset="0" stop-color="#231f20"/><stop offset="0.28" stop-color="#222221"/><stop offset="0.46" stop-color="#202a23"/><stop offset="0.6" stop-color="#1b3928"/><stop offset="0.73" stop-color="#154d2e"/><stop offset="0.86" stop-color="#0d6836"/><stop offset="0.97" stop-color="#038840"/><stop offset="1" stop-color="#009444"/></linearGradient><linearGradient id="linear-gradient-3" x1="400.99" y1="417.05" x2="610.01" y2="417.05" gradientUnits="userSpaceOnUse"><stop offset="0" stop-color="#006838"/><stop offset="0.18" stop-color="#2a4733"/><stop offset="0.28" stop-color="#284a38"/><stop offset="0.35" stop-color="#23514b"/><stop offset="0.57" stop-color="#14637f"/><stop offset="0.75" stop-color="#0971a4"/><stop offset="0.91" stop-color="#0279bc"/><stop offset="1" stop-color="#007cc4"/></linearGradient><linearGradient id="linear-gradient-4" x1="595.53" y1="79.35" x2="713.23" y2="79.35" xlink:href="#linear-gradient"/></defs><path class="cls-1" d="M554.53,227.87c-13.24,0-25.62-7.41-33.3-19.73-20.41-32.7-53.92-54-91.81-54-44.79,0-83.48,29.83-101.62,73a145,145,0,0,0,2.56,116.61H330c-.79-1.46-1.57-2.91-2.33-4.39-.12-.24-.25-.48-.37-.74-.23-.43-.45-.86-.66-1.3q-1-2-2-4c-.39-.83-.79-1.66-1.19-2.5l-.19-.44a3.09,3.09,0,0,1-.14-.32c-.25-.52-.49-1-.71-1.57-.07-.15-.15-.31-.21-.47-.31-.66-.6-1.32-.89-2,0-.09-.08-.18-.11-.27-.35-.77-.68-1.54-1-2.32-.5-1.18-1-2.37-1.48-3.58-.05-.12-.1-.24-.14-.36-.46-1.13-.91-2.27-1.34-3.42-.34-.86-.67-1.73-1-2.6a2.65,2.65,0,0,1-.11-.3l-.16-.42c-.37-1-.73-2-1.07-3s-.62-1.73-.9-2.59c-.12-.31-.22-.64-.33-1-.23-.69-.46-1.38-.67-2.08s-.54-1.63-.79-2.46c-.14-.41-.27-.82-.38-1.24-.26-.81-.5-1.6-.73-2.41-.13-.4-.25-.79-.35-1.19-.35-1.2-.7-2.42-1-3.64s-.71-2.61-1-3.92-.66-2.64-1-4a1.46,1.46,0,0,0,0-.2q-.87-3.7-1.64-7.44c-.07-.38-.16-.76-.22-1.15-.22-1.08-.43-2.17-.63-3.26-.26-1.36-.5-2.71-.72-4.08s-.46-2.72-.66-4.09-.35-2.43-.52-3.66c0-.3-.09-.61-.12-.91,0-.14,0-.28,0-.41-.15-1.1-.29-2.19-.41-3.29-.17-1.39-.32-2.78-.46-4.18-.11-1.15-.23-2.31-.33-3.47l-.12-1.52c0-.59-.1-1.18-.13-1.77-.07-.82-.12-1.65-.18-2.48,0-.46-.06-.91-.07-1.37,0-.18,0-.37,0-.55,0-.46-.06-.92-.08-1.38l0-.55c-.05-1.16-.1-2.32-.14-3.49q0-1.23-.06-2.46c0-.81-.05-1.63-.06-2.45,0-1.34,0-2.67,0-4V227c0-1.23,0-2.44,0-3.67,0-.94,0-1.87.05-2.79a2.71,2.71,0,0,1,0-.29c0-.46,0-.92,0-1.36v-.17c0-.61,0-1.23.08-1.84s0-1.22.07-1.83c.11-2.19.23-4.37.39-6.54,0-.23,0-.45.05-.68.05-.61.09-1.21.14-1.81,0-.14,0-.28,0-.42,0-.37.06-.73.1-1.1l.09-1.09s0-.06,0-.08,0-.08,0-.11c0-.33.07-.66.1-1s.06-.66.09-1c.25-2.42.52-4.81.84-7.21,0-.41.1-.83.17-1.24.08-.65.18-1.31.27-2s.19-1.29.29-1.94l0-.18c.08-.59.18-1.18.27-1.77.19-1.19.38-2.37.59-3.53s.42-2.35.65-3.53c.18-.95.37-1.9.56-2.84s.35-1.76.54-2.64a2.21,2.21,0,0,0,.07-.3v0c0-.16.06-.3.1-.46.16-.75.33-1.49.5-2.23s.31-1.37.47-2.05c0-.1.05-.21.08-.31.23-1,.47-2,.73-3s.5-2,.77-3l.5-1.88c.33-1.21.67-2.41,1-3.61.15-.58.32-1.14.49-1.7s.35-1.16.53-1.74.36-1.16.54-1.74c.27-.86.55-1.73.82-2.58l.86-2.59c.29-.86.58-1.71.88-2.56s.6-1.7.91-2.54c.21-.56.41-1.12.62-1.69s.41-1.12.64-1.67c.42-1.12.85-2.24,1.29-3.35l1.28-3.13s0-.07,0-.11l0,0,.05-.11c.44-1.07.89-2.13,1.36-3.19.75-1.75,1.53-3.48,2.32-5.2,1-2.06,1.94-4.09,2.94-6.12a225,225,0,0,1,23.52-37.44,173.65,173.65,0,0,1,79.6-19.38c65.37,0,123.2,36.77,158.48,93.15C607.33,184.9,588,228,554.53,227.87Z" transform="translate(-34.71 -40.82)"/><path class="cls-2" d="M334.25,351.28c-.65-1.11-1.31-2.23-1.94-3.35-.34-.58-.67-1.16-1-1.75l-.1-.15c-.12-.24-.26-.47-.39-.71l-.73-1.33c-.05-.08-.09-.18-.14-.26h.39C331.58,346.31,332.88,348.82,334.25,351.28Z" transform="translate(-34.71 -40.82)"/><path class="cls-2" d="M343.92,366.16a128.24,128.24,0,0,1-9.67-14.88Q338.81,359,343.92,366.16Z" transform="translate(-34.71 -40.82)"/><path class="cls-3" d="M401,402.68a119.45,119.45,0,0,1-53.49-38.52,128.6,128.6,0,0,1-10.25-14.88c-.7-1.11-1.39-2.23-2.06-3.35-.36-.58-.71-1.16-1-1.75a.78.78,0,0,1-.1-.15l-.42-.71c-.26-.43-.51-.88-.77-1.33-.06-.08-.1-.18-.16-.26-.84-1.46-1.65-2.91-2.46-4.39-.13-.24-.27-.48-.4-.74-.24-.43-.47-.86-.7-1.3q-1.06-2-2.1-4c-.41-.83-.84-1.66-1.25-2.5l-.2-.44a1.91,1.91,0,0,1-.16-.32c-.26-.52-.52-1-.75-1.57a4,4,0,0,1-.22-.47c-.33-.66-.64-1.32-.94-2,0-.09-.09-.18-.13-.27-.37-.77-.71-1.54-1.06-2.32-.54-1.18-1.06-2.37-1.58-3.58,0-.12-.1-.24-.14-.36-.48-1.13-1-2.27-1.42-3.42-.36-.86-.71-1.73-1.05-2.6l-.11-.3c0-.14-.11-.27-.16-.42-.4-1-.78-2-1.15-3s-.65-1.73-1-2.59c-.12-.31-.23-.64-.34-1-.25-.69-.5-1.38-.72-2.08s-.57-1.63-.84-2.46c-.15-.41-.28-.82-.4-1.24-.27-.81-.53-1.6-.77-2.41-.14-.4-.26-.79-.37-1.19-.37-1.2-.74-2.42-1.09-3.64s-.75-2.61-1.1-3.92-.7-2.64-1-4a1.46,1.46,0,0,0-.05-.2q-.93-3.7-1.74-7.44c-.08-.38-.17-.76-.23-1.15-.24-1.08-.46-2.17-.67-3.26-.27-1.36-.53-2.71-.76-4.08s-.49-2.72-.7-4.09-.38-2.43-.56-3.66c0-.3-.09-.61-.12-.91,0-.14,0-.28-.06-.41-.15-1.1-.3-2.19-.43-3.29-.18-1.39-.34-2.78-.48-4.18-.13-1.15-.25-2.31-.35-3.47-.05-.51-.09-1-.14-1.52s-.1-1.18-.13-1.77c-.08-.82-.13-1.65-.19-2.48,0-.46-.07-.91-.08-1.37,0-.18,0-.37,0-.55,0-.46-.06-.92-.08-1.38,0-.18,0-.37,0-.55-.05-1.16-.11-2.32-.14-3.49,0-.82-.06-1.64-.07-2.46s-.05-1.63-.06-2.45c0-1.34,0-2.67,0-4V225c0-1.23,0-2.44,0-3.67,0-.94,0-1.87,0-2.79a2.71,2.71,0,0,1,0-.29c0-.46,0-.92,0-1.36v-.17c0-.61,0-1.23.08-1.84s0-1.22.07-1.83c.1-2.19.25-4.37.42-6.54,0-.23,0-.45,0-.68.05-.61.09-1.21.15-1.81,0-.14,0-.28,0-.42,0-.37.06-.73.1-1.1s.07-.72.11-1.09c0,0,0-.06,0-.08s0-.08,0-.11c0-.33.06-.66.1-1s.07-.66.1-1c.26-2.42.55-4.81.88-7.21l.18-1.24c.09-.65.19-1.31.29-2s.2-1.29.31-1.94l0-.18c.09-.59.19-1.18.29-1.77.2-1.19.4-2.37.63-3.53s.44-2.35.68-3.53c.19-.95.39-1.9.59-2.84s.38-1.76.58-2.64a2.21,2.21,0,0,0,.07-.3v0c0-.16.07-.3.11-.46.17-.75.34-1.49.53-2.23s.32-1.37.5-2.05c0-.1.05-.21.08-.31.25-1,.5-2,.77-3s.54-2,.82-3l.54-1.88c.34-1.21.7-2.41,1.07-3.61.17-.58.35-1.14.53-1.7s.37-1.16.56-1.74.38-1.16.57-1.74c.29-.86.58-1.73.87-2.58s.6-1.72.91-2.59.61-1.71.94-2.56.62-1.7,1-2.54l.66-1.69c.21-.55.44-1.12.67-1.67.45-1.12.91-2.24,1.38-3.35s.88-2.09,1.35-3.13l.05-.11,0,0s0-.08,0-.11c.47-1.07.95-2.13,1.45-3.19.79-1.75,1.62-3.48,2.46-5.2,1-2.06,2.06-4.09,3.12-6.12a223.66,223.66,0,0,1,24.93-37.44,207.47,207.47,0,0,0-66,50.64c-34.67,39.69-55.91,93.09-55.91,151.85,0,122.54,92.36,221.88,206.28,221.88,10.62,0,31.22-2.53,31.22-2.53s9.48-1.73,14.12-2.85c5.51-1.33,10.91-2.9,16.24-4.7C415.6,474.37,401.08,403.14,401,402.68Z" transform="translate(-34.71 -40.82)"/><path class="cls-4" d="M600.75,417.1q-3.9,5.38-8.12,10.49a207.51,207.51,0,0,1-75.08,57.81,189.39,189.39,0,0,1-17.81,7c-84.14-18-98.66-89.23-98.75-89.69A111.59,111.59,0,0,0,438.16,409c38.3,0,72.41-19.4,94.25-49.55a42.12,42.12,0,0,1,34.06-17.74C602.6,341.73,623,386.49,600.75,417.1Z" transform="translate(-34.71 -40.82)"/><path class="cls-5" d="M708.18,105.14h-12a5,5,0,0,1-5-5V58.56a5,5,0,0,1,5-5h12a4.62,4.62,0,0,0,3.57-1.8,6.76,6.76,0,0,0,1.48-4.33c0-3.38-2.25-6.12-5.05-6.12H600.58a4.64,4.64,0,0,0-3.57,1.8,6.72,6.72,0,0,0-1.48,4.32c0,3.39,2.26,6.13,5.05,6.13h13a5,5,0,0,1,5,5v41.59a5,5,0,0,1-5,5h-13a4.64,4.64,0,0,0-3.57,1.8,6.74,6.74,0,0,0-1.48,4.33c0,3.37,2.26,6.11,5.05,6.11h107.6a4.61,4.61,0,0,0,3.57-1.79,6.72,6.72,0,0,0,1.48-4.32C713.23,107.88,711,105.14,708.18,105.14Zm-79.5-5V58.56a5,5,0,0,1,5-5h11.27a5,5,0,0,1,5,5v41.59a5,5,0,0,1-5,5H633.67A5,5,0,0,1,628.68,100.15Zm31.34,0V58.56a5,5,0,0,1,5-5h11.11a5,5,0,0,1,5,5v41.59a5,5,0,0,1-5,5H665A5,5,0,0,1,660,100.15Z" transform="translate(-34.71 -40.82)"/><text class="cls-6" transform="translate(0.55 515.59) scale(0.84 1)">C</text><text class="cls-6" transform="translate(30.06 515.59) scale(0.59 0.7)">APTI<tspan class="cls-7" x="120.15" y="0">V</tspan><tspan class="cls-8" x="156.33" y="0">A</tspan><tspan class="cls-9" x="190.62" y="0">TING</tspan></text><text class="cls-6" transform="translate(217.13 515.59) scale(0.84 1)"><tspan xml:space="preserve"> C</tspan></text><text class="cls-6" transform="translate(258.49 515.59) scale(0.59 0.7)"><tspan class="cls-10">O</tspan><tspan x="46.5" y="0">VERS</tspan><tspan class="cls-8" x="185.27" y="0">A</tspan><tspan x="219.56" y="0">TIONS</tspan></text><text class="cls-6" transform="translate(485.94 515.59) scale(0.84 1)"> </text><text class="cls-11" transform="translate(497.78 515.59) scale(0.59 0.7)">WITH</text><text class="cls-6" transform="translate(585.57 515.59) scale(0.84 1)"><tspan xml:space="preserve"> C</tspan></text><text class="cls-6" transform="translate(626.93 515.59) scale(0.59 0.7)">HRI<tspan class="cls-12" x="92.77" y="0">S</tspan><tspan class="cls-13" x="118.7" y="0">TIAN</tspan></text></svg>